# xmcd
#
# Track frame offsets: 
#        150
#        66788
#        93848
#        148996
#        165754
#        196371
#        232835
#
# Disc length: 3446 seconds
#
# Revision: 1
# Processed by: cddbd v1.5.2PL0 Copyright (c) Steve Scherf et al.
# Submitted via: ExactAudioCopy v0.99pb5
#
DISCID=520d7407
DTITLE=Andy Sheppard - Movements In Colour
DYEAR=2008
DGENRE=Jazz
TTITLE0=La Tristesse Du Roi
TTITLE1=Bing
TTITLE2=Nave Nave Moe
TTITLE3=Ballarina
TTITLE4=May Song
TTITLE5=We Shall Not Go To Market Today
TTITLE6=International Blue
EXTD=
EXTT0=
EXTT1=
EXTT2=
EXTT3=
EXTT4=
EXTT5=
EXTT6=
PLAYORDER=
